<?xml version="1.0" encoding="UTF-8" standalone="no"?> <!-- Created with Vectornator for iOS (http://vectornator.io/) --><!DOCTYPE svg PUBLIC "-//W3C//DTD SVG 1.1//EN" "http://www.w3.org/Graphics/SVG/1.1/DTD/svg11.dtd">
<svg style="fill-rule:nonzero;clip-rule:evenodd;stroke-linecap:round;stroke-linejoin:round;" xmlns:vectornator="http://vectornator.io" xmlns:xlink="http://www.w3.org/1999/xlink" xmlns="http://www.w3.org/2000/svg" xml:space="preserve" version="1.1" viewBox="0 0 936 720">
<metadata>
<vectornator:setting key="DimensionsVisible" value="1"/>
<vectornator:setting key="DynamicGuides" value="0"/>
<vectornator:setting key="SnapToPoints" value="0"/>
<vectornator:setting key="GuidesVisible" value="1"/>
<vectornator:setting key="RulersVisible" value="1"/>
<vectornator:setting key="SnapToEdges" value="0"/>
<vectornator:setting key="DisplayWhiteBackground" value="0"/>
<vectornator:setting key="SnapToGuides" value="1"/>
<vectornator:setting key="Units" value="Inches"/>
<vectornator:setting key="SnapToGrid" value="0"/>
<vectornator:setting key="GridSpacing" value="36"/>
<vectornator:setting key="New" value="1"/>
</metadata>
<defs/>
<g id="Back 1" vectornator:layerName="Back 1">
<path stroke="#8a0c58" stroke-width="8" d="M-65.3329-32.2419L970.783-32.2419L970.783+734.289L-65.3329+734.289L-65.3329-32.2419Z" fill="#9aa7d6" stroke-linecap="round" opacity="1" stroke-linejoin="round"/>
</g>
<g id="Fore2 1" vectornator:layerName="Fore2 1" opacity="0.565553">
<path stroke="#ffffff" stroke-width="3" d="M-162.285-44.9076L-162.285+806.03L976.121+806.03L976.121-44.9076L-162.285-44.9076ZM449.317+28.8082C465.852+29.299+479.902+37.4268+489.161+62.8707C492.699+120.189+413.88+212.044+493.223+247.746C527.884+254.363+559.22+217.22+542.411+185.089C524.346+163.12+514.181+198.349+526.536+209.933C524.081+215.042+516.979+213.876+512.223+213.808C464.436+199.421+479.701+108.418+532.786+118.964C620.312+142.377+606.234+281.256+531.536+312.933C473.058+330.943+381.201+303.256+376.379+233.027C377.104+221.234+379.133+209.368+383.567+198.371C386.018+192.654+388.798+186.99+392.629+182.058C443.889+143.664+379.471+67.0289+328.223+83.5895C320.976+85.2578+314.369+88.8399+308.442+93.3395C343.392+86.1932+360.893+148.536+320.254+156.683C331.086+161.598+341.489+173.618+344.786+185.152C353.605+233.172+292.663+270.799+256.067+238.839C249.21+268.436+209.528+270.565+186.223+260.121C157.452+240.076+161.808+194.326+187.911+174.152C204.629+155.324+240.594+160.476+241.004+188.808C240.675+190.6+238.86+191.967+237.036+191.683C224.653+176.126+217.462+201.196+230.536+205.714C274.054+196.472+261.305+133.119+233.754+112.402C206.199+104.031+174.991+123.365+161.098+145.621C153.621+118.34+114.45+117.82+92.9105+130.714C71.0486+143.268+75.5681+200.695+106.129+183.496C107.711+181.023+106.935+177.84+106.004+175.277C102.402+173.004+98.5089+180.208+94.9418+176.027C84.9187+145.923+128.735+136.743+146.567+153.496C161.296+169.088+151.155+194.07+139.942+208.871C102.279+237.177+44.5668+214.385+32.0043+169.777C26.7731+136.669+45.4512+93.5181+82.1918+90.7145C80.3239+57.4711+40.6894+58.3739+27.0668+90.1207C18.2557+88.2766+17.1194+75.96+18.7543+68.4645C22.8896+39.2795+56.3586+28.9261+81.9105+29.277C103.29+31.0393+118.747+52.5749+122.504+73.777C138.05+51.7529+184.114+53.9791+187.286+80.8395C191.574+61.1081+218.89+37.335+240.786+50.777C244.362+53.3615+253.422+60.8083+256.223+65.8082C256.871+57.7447+258.938+49.518+265.098+43.9332C274.273+35.5844+286.25+30.1156+298.692+29.3707C308.855+28.5734+318.812+31.3867+328.567+33.8395C364.526+63.6708+412.939+27.7286+449.317+28.8082ZM446.754+34.3395C409.343+32.2293+372.465+71.6866+333.786+41.8395C325.061+39.1912+316.185+36.8381+307.129+35.6832C297.352+34.7082+287.304+36.7887+278.786+41.7145C263.739+46.6007+263.515+62.8258+260.067+74.6832C257.87+76.2803+255.038+74.8547+253.598+72.9332C237.672+37.0202+197.403+59.4691+189.348+86.1207C176.034+60.0759+129.854+55.0862+123.536+89.4957C123.589+88.9015+123.439+88.5244+123.223+88.1832C123.088+89.5059+122.944+90.8166+122.692+92.0895C121.099+93.8723+117.815+92.9284+117.348+90.6207C117.335+89.5724+117.547+88.6488+117.629+87.652C117.767+67.9369+106.944+43.6547+87.5355+36.3707C67.2882+34.203+43.3736+39.1333+30.1293+55.777C22.8312+62.7848+25.4883+80.7975+26.0355+83.7457C33.5038+74.2699+40.9811+63.769+52.4418+58.7457C73.243+48.4736+93.1418+79.4517+82.1293+97.152C82.297+95.0472+82.2766+93.1025+82.1918+91.2145C53.0268+103.331+33.7207+135.371+38.1293+167.277C49.0853+207.822+100.997+229.034+135.442+203.933C143.779+192.057+151.391+174.888+144.379+160.902C133.338+147.779+100.18+147.888+100.129+168.839C103.747+167.475+111.349+167.765+112.036+172.277C114.646+177.923+114.576+185.414+109.629+189.808C78.1788+209.496+61.709+158.506+79.223+137.308C94.3646+110.687+147.502+106.371+162.004+134.433C176.874+111.493+209.337+99.0604+235.317+105.589C261.473+123.993+274.579+166.568+258.317+195.152C247.991+220.265+206.972+214.622+218.786+184.839C220.457+179.465+227.625+179.533+232.661+181.246C230.454+176.68+226.704+172.876+222.442+170.183C179.125+162.987+153.098+233.077+191.879+256.027C217.447+265.534+247.985+256.221+254.661+229.871C285.344+263.123+343.98+233.872+338.723+189.089C336.873+170.671+316.184+162.913+304.942+155.121C305.85+151.561+310.025+150.913+313.036+149.964C361.331+148.519+330.444+74.2017+293.848+108.089C292.042+109.24+289.252+108.314+288.786+106.121C292.057+96.0646+302.809+89.3472+311.348+83.4645C368.913+45.4579+458.083+137.565+397.973+185.777C394.458+190.188+392.006+195.324+389.754+200.464C385.315+211.459+383.255+223.368+382.848+235.183C391.106+300.547+479.763+325.632+534.129+304.433C603.04+271.322+609.563+130.581+519.942+125.089C481.45+130.417+479.15+203.127+517.567+206.746C506.873+190.257+523.175+158.086+543.598+176.933C561.789+197.207+552.99+235.104+528.723+247.246C501.597+262.555+462.696+254.325+456.879+220.152C424.628+158.626+511.653+101.875+472.754+43.8082C464.033+37.5289+455.388+34.8264+446.754+34.3395ZM688.286+35.9332C699.288+35.7638+708.819+41.5632+712.348+56.8395C738.141+22.898+799.867+46.6747+793.379+84.0895C810.581+72.137+835.523+71.6062+854.223+80.0895C868.45+91.4891+867.862+117.38+857.411+129.683C886.467+130.727+894.27+181.255+865.754+187.871C872.267+192.338+879.249+201.906+876.098+208.214C867.954+240.085+824.034+222.946+813.504+250.339C807.471+275.279+855.496+279.686+858.192+255.621C868.32+255.301+872.151+268.504+871.254+276.839C855.416+322.765+781.359+327.819+758.317+284.964C744.906+267.607+757.333+245.672+772.192+235.621C753.138+230.491+743.266+203.148+753.879+187.277C768.765+176.607+788.213+173.835+805.598+172.339C818.379+152.89+794.633+136.207+780.286+126.933C750.285+117.845+706.854+140.083+713.442+175.683C718.705+212.194+741.95+259.464+703.848+286.808C680.359+296.661+658.474+277.46+661.098+252.902C659.782+233.716+692.705+220.748+692.504+244.996C695.611+247.69+700.296+245.959+700.629+241.808C701.819+235.573+701.92+228.806+699.504+222.839C670.835+193.666+649.679+145.66+681.629+114.027C677.362+114.321+672.954+113.443+670.911+110.683C668.004+105.424+669.948+99.9441+673.317+95.3082C670.774+97.9092+667.993+100.413+664.348+100.683C613.901+85.1083+656.978+36.4155+688.286+35.9332ZM687.817+42.8082C659.993+44.7405+623.303+92.9514+675.411+92.4645C676.943+90.8249+678.628+89.3396+680.286+88.152C678.708+97.8706+671.091+115.89+693.348+104.558C695.25+104.579+697.044+106.201+696.879+108.183C652.449+138.626+675.492+189.728+705.504+220.996C708.287+228.534+708.338+237.061+706.254+244.777C704.825+249.704+699.709+253.637+694.473+252.339C687.164+240.206+674.298+228.87+667.442+252.308C665.191+271.424+679.604+288.883+699.504+281.652C736.949+256.123+709.607+209.669+706.942+174.964C700.811+136.379+746.13+111.922+779.473+119.808C799.89+128.699+828.111+153.928+809.817+177.277C792.847+181.76+771.563+180.689+757.036+193.371C750.537+213.135+767.739+229.148+782.504+234.496C723.985+267.749+797.406+331.518+841.786+302.214C855.735+293.767+871.982+274.039+860.692+261.214C856.153+287.43+813.336+281.05+806.098+259.652C801.145+218.826+898.174+225.608+857.879+188.558C857.364+188.537+856.942+188.634+856.411+188.589C856.472+188.171+856.634+187.89+856.754+187.558C855.336+186.302+854.208+185.135+852.473+183.777C890.494+187.812+881.71+124.795+846.286+137.964C844.62+138.068+842.964+136.808+842.754+135.121C844.209+134.179+845.523+132.992+846.817+131.808C846.604+131.724+846.122+131.418+846.098+131.433C846.676+131.223+847.188+131.202+847.754+131.027C859.803+119.166+863.719+97.6216+849.629+84.9957C828.298+75.3189+805.372+83.2613+788.942+96.2457C787.628+98.6265+786.126+101.029+784.223+103.464C785.144+101.884+784.61+101.165+783.723+100.714C782.155+102.188+780.552+103.672+779.161+105.214C780.353+103.51+781.124+101.855+782.036+100.183C780.034+99.8893+778.009+99.9771+780.036+98.4957C781.768+95.4739+783.793+92.77+786.067+90.3395C795.525+52.282+735.29+28.601+710.567+67.8082C710.297+65.4864+709.881+63.3923+709.411+61.4332C709.213+61.2858+709.169+61.1356+709.286+60.9645C705.762+46.9803+697.335+42.1472+687.817+42.8082ZM164.192+140.089C164.257+140.311+164.381+140.49+164.442+140.714C164.563+140.396+164.436+140.225+164.192+140.089ZM153.817+306.527C170.938+306.197+187.761+312.097+195.442+325.746C205.792+318.991+221.861+313.98+233.786+322.089C272.846+350.381+245.642+407.049+209.379+422.496C209.513+420.633+209.984+418.459+210.567+416.152C210.315+416.164+210.092+416.023+209.817+416.152C210.103+415.995+210.375+415.784+210.661+415.621C215.382+397.517+229.616+368.571+201.411+361.527C164.194+351.609+124.215+389.913+131.161+425.652C110.797+388.525+163.604+343.324+202.723+355.089C228.793+360.863+228.897+389.06+219.442+409.496C245.01+388.492+260.811+345.481+226.473+326.121C215.614+320.833+204.726+329.455+194.879+332.464C176.644+300.914+100.032+309.64+113.067+352.058C113.579+354.087+112.207+356.344+110.129+356.714C60.5972+320.44-3.37805+412.027+69.973+420.308C72.7456+420.687+74.9069+423.616+74.0043+426.371C54.7187+442.959+23.6404+464.297+36.9418+494.746C53.5219+510.803+77.2489+504.573+95.5668+499.339C95.9756+498.819+96.4534+498.183+96.848+497.683C96.3867+498.156+96.3035+498.643+96.3793+499.121C98.4161+498.537+100.698+497.917+102.567+497.402C92.6331+518.824+60.3901+548.799+78.8793+574.121C106.3+589.765+128.928+554.246+138.004+532.746C140.131+530.624+143.732+530.966+145.817+532.964C183.489+581.59+145.906+659.001+89.223+672.027C75.3867+672.419+63.6943+662.213+60.473+649.089C56.1461+638.312+66.0087+628.661+75.848+628.402C46.6442+605.364+7.82851+673.178+53.6918+685.871C129.862+710.861+212.955+617.758+186.504+543.089C183.84+532.494+161.655+523.413+171.817+514.746C189.342+529.224+199.617+557.424+225.629+558.933C250.548+557.982+254.868+520.153+232.786+510.777C231.707+508.894+232.961+506.284+235.067+505.871C294.189+505.609+310.688+598.003+253.754+619.746C243.636+625.771+229.475+618.857+227.348+607.777C221.9+612.624+220.755+621.24+219.848+628.121C221.685+644.848+244.639+643.292+257.379+643.339C329.9+623.933+331.54+500.424+251.129+492.464C248.827+491.592+247.259+489.381+246.848+486.996C255.541+472.926+282.485+464.166+279.723+441.339C273.771+426.78+253.401+429.906+241.567+433.996C241.622+433.964+241.665+433.849+241.723+433.808C241.357+434.012+240.959+434.194+240.598+434.402C238.766+435.029+238.154+431.992+236.661+431.589C238.207+430.022+240.113+428.701+242.254+427.589C240.174+427.84+237.9+428.483+239.223+427.964C285.464+399.14+373.593+415.045+368.254+481.527C366.69+496.759+350.328+508.827+335.411+506.496C340.806+509.368+348.806+515.978+356.786+511.089C398.17+498.84+419.664+442.061+380.286+413.621C317.004+371.168+222.433+415.197+188.661+478.464C199.269+473.893+215.65+465.727+215.661+481.527C209.006+514.325+167.731+507.885+149.504+489.527C136.098+477.615+142.42+454.82+158.723+453.933C149.687+443.462+162.132+428.238+175.786+424.496C175.142+423.527+174.592+422.522+174.411+421.433C173.992+419.694+174.217+416.274+174.661+412.746C161.043+426.822+141.689+433.325+121.911+432.277C119.941+438.45+118+438.108+119.536+431.339C139.904+425.611+161.117+417.26+176.723+403.808C177.403+402.197+178.134+401.253+178.911+401.777C180.515+400.289+182.136+398.794+183.598+397.183C182.595+405.972+179.675+416.63+183.254+423.714C183.815+423.758+184.392+423.744+184.942+423.839C185.386+425.062+185.549+426.011+185.567+426.808C186.351+427.573+187.171+428.308+188.254+428.902C186.757+428.878+185.269+429.161+183.786+429.371C183.622+429.398+183.464+429.401+183.286+429.402C167.301+431.932+153.671+447.046+170.754+458.527C110.285+462.374+200.896+533.339+209.567+478.777C195.75+484.351+170.081+491.157+186.223+468.152C226.159+386.663+407.975+345.512+406.254+469.996C395.728+496.137+364.169+529.347+333.661+513.933C329.881+510.825+324.763+503.997+329.223+499.683C345.239+504.755+365.158+491.737+362.442+473.277C357.666+425.885+306.553+414.163+265.629+424.496C274.741+426.05+282.977+430.719+285.942+439.402C289.895+460.596+266.723+479.301+253.661+486.464C336.259+496.112+338.379+619.8+266.411+647.308C249.563+652.627+224.693+651.526+214.442+635.339C211.669+622.825+215.794+602.516+230.286+599.621C233.075+607.645+241.035+621.511+252.692+612.996C300.06+593.677+285.927+523.694+246.254+513.308C260.292+528.86+253.9+558.803+232.161+564.683C216.271+567.426+204.353+559.771+194.036+549.339C218.857+625.754+121.569+727.906+43.598+687.996C1.42876+664.764+42.6315+597.859+81.6918+622.277C97.1391+640.135+79.026+632.992+68.2543+638.027C61.6764+650.609+75.8773+666.803+89.348+665.496C140.09+651.892+173.968+583.829+142.067+538.339C135.446+556.553+109.989+594.577+80.348+582.777C52.9718+564.152+72.2994+530.617+89.098+507.839C70.3955+515.218+47.4622+512.267+32.1605+499.339C15.7466+469.193+43.231+438.776+67.4418+424.746C51.2319+431.986+18.4187+402.733+29.2543+378.808C38.9335+349.185+77.3528+337.251+104.942+348.152C99.5932+322.813+127.065+307.042+153.817+306.527ZM784.817+346.464C821.097+343.685+836.768+379.511+826.536+407.777C853.445+399.431+887.591+429.151+859.848+450.683C888.183+454.086+889.325+493.942+864.223+503.371C864.808+503.723+865.582+504.004+866.067+504.371C873.062+510.947+876.567+520.576+880.411+529.246C884.399+580.771+794.103+579.083+809.973+635.371C817.023+645.446+828.74+655.868+841.692+655.683C856.108+655.991+871.226+628.054+847.473+633.996C845.466+633.399+844.475+630.862+845.504+629.058C864.081+611.816+892.5+646.229+876.411+664.996C865.252+681.123+845.766+694.898+825.817+696.621C808.088+695.054+795.585+680.602+782.379+670.246C758.445+610.156+672.77+612.755+647.879+670.558C643.647+675.645+637.899+679.106+632.254+682.402C579.793+713.44+496.977+690.197+477.254+630.058C455.257+567.189+495.053+479.562+568.254+481.714C615.338+490.785+627.513+553.956+615.786+593.339C589.765+653.643+489.882+591.878+545.817+549.527C550.582+546.745+557.52+545.417+562.161+549.027C546.136+577.507+585.518+582.899+579.036+549.714C571.846+526.473+536.862+524.849+522.661+542.558C500.389+567.205+514.851+602.258+530.567+626.121C565.491+669.102+625.991+644.656+640.098+596.652C645.635+589.597+651.646+582.606+659.348+577.839C668.103+572.974+678.707+572.935+688.348+574.589C696.058+576.218+703.748+578.061+711.286+580.371C754.09+603.482+753.381+524.954+783.629+527.777C778.752+518.891+779.224+504.395+785.004+493.214C773.762+494.534+762.485+490.769+757.942+480.558C750.034+497.052+730.208+500.809+718.036+490.652C714.979+502.888+701.472+512.669+687.161+509.339C654.284+499.719+642.039+454.143+661.129+427.183C672.159+413.366+695.243+411.283+709.817+420.933C705.764+382.252+747.042+346.541+784.817+346.464ZM789.817+352.871C787.221+352.738+784.461+352.826+781.536+353.152C745.147+355.22+712.735+390.388+715.161+425.183C716.004+426.083+716.812+427.04+717.536+428.058C717.735+428.317+716.385+427.112+715.223+426.589C715.441+428.84+715.795+431.074+716.317+433.308C715.009+431.824+713.468+430.527+711.817+429.308C711.756+430.25+711.817+431.276+711.911+431.464C711.637+430.622+711.545+429.775+711.317+428.933C695.236+417.541+665.893+418.829+660.754+442.402C655.02+462.902+661.793+488.106+680.598+499.527C694.256+508.961+709.778+499.425+713.692+485.871C711.028+482.101+709.075+477.371+708.348+471.496C710.146+474.926+712.27+477.807+714.567+480.246C714.684+477.3+714.29+474.295+713.161+471.308C716.589+475.293+718.214+479.587+718.567+483.839C731.515+493.609+748.446+489.893+755.942+471.777C755.92+471.401+755.825+471.07+755.817+470.683C755.826+470.754+756.173+470.896+756.254+470.996C756.859+469.444+757.418+467.78+757.879+466.027C758.305+468.214+759.018+470.228+759.879+472.121C760.262+471.961+760.649+471.79+760.879+471.308C760.765+472.021+760.529+472.625+760.379+473.308C765.918+484.047+778.114+489.337+789.911+486.058C793.27+482.376+797.45+479.558+802.567+478.339C802.383+478.509+802.29+478.751+802.161+478.964C802.648+478.511+803.155+478.115+803.629+477.621C805.257+476.96+807.401+477.826+807.879+479.652C806.344+480.755+804.772+482.115+803.223+483.464C803.647+484.203+806.303+483.41+805.942+483.589C803.423+486.129+800.299+488.019+797.004+489.621C785.675+502.434+778.789+520.326+796.911+532.652C796.877+532.641+796.489+532.84+796.348+532.871C797.508+533.633+798.677+534.419+799.911+535.371C797.543+535.874+795.476+535.765+793.536+535.402C793.552+535.684+793.434+535.927+793.661+536.246C795.736+541.009+777.38+527.595+771.942+537.902C768.004+540.571+765.08+544.545+763.754+549.121C757.478+610.82+699.885+577.315+663.098+582.871C632.434+620.913+593.415+686.004+536.661+640.433C526.142+633.562+519.989+622.21+515.036+611.027C474.806+565.813+544.825+488.015+583.536+542.746C588.661+555.621+585.094+575.657+571.036+581.183C553.145+586.296+547.292+559.7+557.473+553.621C520.054+558.287+537.158+615.395+570.629+612.558C640.566+610.623+619.681+488.791+560.598+487.933C490.436+494.179+459.433+583.474+489.223+640.839C514.92+688.26+585.929+703.888+631.129+675.558C636.394+672.487+641.39+668.828+645.004+663.839C670.858+606.65+759.168+602.811+784.223+662.777C795.737+672.947+807.084+684.672+822.004+689.652C840.691+691.641+857.884+676.694+869.598+663.933C877.672+656.086+874.779+643.425+867.817+636.308C867.988+637.535+867.889+638.85+867.286+640.246C858.005+673.472+813.189+663.171+803.223+635.933C787.853+580.759+864.516+578.153+874.442+535.058C874.1+520.987+863.524+511.417+853.692+505.214C852.883+505.237+852.159+505.401+851.317+505.371C850.781+504.536+850.611+503.912+850.379+503.277C849.117+502.559+847.758+501.657+846.598+501.058C847.875+501.039+849.001+500.84+850.192+500.714C850.857+499.582+852.787+499.489+855.129+499.871C882.14+493.124+881.717+457.254+852.661+455.121C852.161+455.392+851.841+455.698+851.317+455.964C851.757+455.725+852.003+455.436+852.161+455.121C850.17+455.001+848.07+455.001+845.817+455.214C847.876+454.145+849.513+453.011+851.161+451.871C850.755+451.392+850.189+450.67+850.286+450.714C851.299+450.568+852.164+450.629+853.129+450.558C880.383+429.387+843.291+399.568+819.723+420.339C818.151+422.433+816.403+424.425+814.442+426.277C813.96+426.95+813.402+427.451+812.942+428.183C811.038+430.007+807.871+431.973+805.879+428.683C807.548+427.165+809.111+425.523+810.536+423.777C808.873+423.642+806.414+424.525+807.598+423.777C810.339+418.804+813.762+415.159+817.473+412.402C828.6+387.597+821.038+354.471+789.817+352.871Z" fill="#858ca6" stroke-linecap="round" opacity="1" stroke-linejoin="round"/>
</g>
<g id="Fore3" vectornator:layerName="Fore3" opacity="0.681234">
<path stroke="#373c4f" stroke-width="12" d="M858.703+136.59C868.057+135.42+890.599+94.0208+870.523+83.9827C852.694+75.0686+836.504+74.5723+817.684+83.9827C811.459+87.095+804.239+90.74+799.607+96.0337C798.407+97.4058+798.07+99.1086+797.29+100.669C796.918+101.413+795.991+103.73+796.363+102.986C808.522+78.6676+803.464+47.0565+773.188+42.7313C761.05+40.9973+748.775+42.2921+740.279+52.0013C737.247+55.4665+732.791+58.2074+731.009+62.6618C730.906+62.9184+728.467+70.7799+727.765+70.0777C726.375+68.6876+727.362+60.4451+725.911+58.0268C714.132+38.3956+693.572+33.701+674.926+49.6838C666.888+56.5729+659.778+92.0149+672.145+95.1067C681.273+97.3888+685.45+94.2706+692.539+89.5447C693.362+88.996+695.299+88.5756+694.856+87.6907C693.989+85.9561+690.071+92.7298+689.758+93.2527C688.082+96.0451+684.651+107.84+686.977+111.329C689.654+115.345+707.698+110.419+710.615+108.085C711.485+107.389+713.396+106.231+713.396+106.231C713.396+106.231+710.615+108.085+709.225+109.012C704.633+112.073+700.071+115.191+696.71+119.672C687.751+131.617+680.393+142.552+682.342+158.143C683.691+168.941+689.483+184.646+696.71+192.905C709.14+207.11+726.338+220.396+720.812+242.5C719.192+248.979+718.336+255.888+710.152+253.16C701.062+250.13+705.593+237.955+696.71+236.474C672.107+232.374+671.141+269.731+680.488+283.751C689.269+296.923+712.271+298.235+724.057+287.923C729.485+283.173+733.871+271.459+736.108+264.748C741.85+247.52+743.588+219.822+740.279+202.175C737.568+187.714+730.407+174.827+731.936+159.533C733.875+140.145+752.318+123.306+772.724+128.015C781.497+130.04+789.263+134.199+797.29+138.212C802.717+140.926+806.589+142.749+810.731+147.482C813.804+150.994+816.093+155.291+817.684+159.533C831.622+196.703+773.829+176.541+769.943+199.858C768.145+210.645+770.577+220.007+779.213+227.204C784.629+231.717+796.363+233.361+796.363+233.693C796.363+234.244+791.391+235.193+790.801+235.547C786.39+238.193+783.708+240.472+780.604+244.817C765.808+265.531+769.408+283.509+784.775+302.291C802.233+323.629+845.851+323.16+865.888+306.463C871.316+301.939+872.129+293.516+875.158+287.459C878.187+281.4+881.936+270.076+880.256+263.357C879.764+261.388+868.787+252.115+866.815+254.087C865.692+255.21+871.429+264.311+868.669+267.992C858.16+282.004+838.128+276.083+829.735+262.894C804.952+223.949+884.275+237.224+886.282+209.128C886.661+203.817+888.234+192.984+883.501+189.197C880.545+186.833+878.206+186.655+874.694+185.953C873+185.614+868.051+185.798+869.596+185.026C873.753+182.947+880.277+185.015+884.891+182.708C896.793+176.757+898.538+160.278+894.161+149.336C890.118+139.228+881.26+137.063+871.913+135.895C867.294+135.317+854.798+137.078+858.703+136.59Z" fill="#6f7aa3" stroke-linecap="round" opacity="1" stroke-linejoin="round"/>
<path stroke="#373c4f" stroke-width="12" d="M959.247+360.316C957.241+358.31+958.052+358.348+957.222+361.666" fill="#6f7aa3" stroke-linecap="round" opacity="1" stroke-linejoin="round"/>
<path stroke="#373c4f" stroke-width="12" d="M822.226+425.114C827.62+441.55+842.646+401.907+844.501+395.415C849.258+378.764+834.483+353.14+818.176+349.516C792.792+343.875+751.225+368.18+738.529+389.34C734.584+395.914+729.079+409.373+729.079+417.014C729.079+419.969+728.497+423.553+729.079+426.464C729.375+427.944+731.104+432.023+731.104+430.514C731.104+410.881+697.776+417.622+689.255+424.439C673.218+437.269+668.518+456.981+671.031+477.087C673.819+499.39+709.473+523.709+725.704+499.361C730.11+492.753+730.882+481.822+728.404+474.387C727.768+472.478+727.504+468.087+725.704+468.987C722.08+470.799+727.473+480.136+728.404+481.812C733.975+491.839+744.319+494.969+755.403+493.962C764.711+493.115+779.043+462.928+774.303+458.188C773.404+457.289+772.278+466.569+772.278+467.637C772.278+471.941+770.242+483.826+773.628+487.212C781.701+495.285+803.888+489.671+812.777+485.862C816.792+484.141+823.576+478.437+823.576+478.437C823.576+478.437+821.444+481.244+820.201+482.487C817.25+485.438+813.385+486.48+810.077+489.237C801.631+496.275+794.899+508.522+797.252+520.286C798.329+525.669+801.176+526.91+804.677+530.411C806.178+531.911+812.199+533.785+810.077+533.785C799.069+533.785+789.23+523.583+779.028+533.785C764.362+548.451+773.823+569.397+753.378+586.434C740.003+597.58+720.724+574.983+708.83+571.584C696.524+568.068+681.792+581.196+672.381+587.784C659.111+597.073+655.844+609.552+647.407+622.208C633.875+642.505+608.488+653.932+584.634+653.932C575.891+653.932+564.985+655.763+557.634+649.882C549.57+643.431+542.006+635.759+536.71+626.933C519.961+599.017+520.667+520.857+563.034+515.561C588.955+512.321+617.124+562.958+595.433+581.034C583+591.395+571.975+578.314+570.459+566.184C569.419+557.868+577.209+552.149+577.209+552.01C577.209+550.759+559.625+558.688+557.634+560.11C531.279+578.935+550.983+616.616+575.859+624.908C598.801+632.555+621.64+611.701+629.857+591.159C643.026+558.235+633.769+508.503+598.808+492.612C528.802+460.791+494.758+555.527+492.161+610.058C491.408+625.87+490.877+645.179+499.586+659.332C518.456+689.995+547.918+698.076+581.259+699.83C598.824+700.755+613.735+701.674+629.182+692.406C642.622+684.342+654.472+671.216+663.606+658.657C667.991+652.628+669.999+644.017+675.756+639.082C692.131+625.046+707.229+617.886+729.079+615.458C756.635+612.396+771.336+646.983+783.753+664.056C798.996+685.016+825.164+694.243+849.226+687.681C856.838+685.605+869.927+685.652+874.875+678.231C881.013+669.023+887.557+653.08+885.674+641.782C883.849+630.83+865.624+619.119+855.975+624.908C851.411+627.646+866.351+627.752+869.475+631.657C875.454+639.131+871.378+650.413+864.075+655.282C850.612+664.257+828.227+642.8+825.601+630.982C819.936+605.491+836.089+581.928+856.65+567.534C866.476+560.656+877.344+558.32+883.65+547.285C892.543+531.721+893.199+515.227+878.925+502.736C877.778+501.733+862.725+496.337+862.725+495.312C862.725+494.541+880.384+492.894+882.3+491.937C889.543+488.315+892.864+477.617+893.774+470.337C894.976+460.72+886.843+453.627+878.25+450.763C874.598+449.546+870.637+448.861+866.775+449.413C866.558+449.444+863.4+451.29+863.4+450.763C863.4+449.572+872.248+443.776+873.525+441.988C882.859+428.92+882.285+412.667+867.45+404.189C856.748+398.074+841.432+403.372+832.351+410.939C828.378+414.25+825.551+418.536+822.226+422.414C821.191+423.622+818.851+427.38+818.851+425.789C818.851+420.458+821.763+423.702+822.226+425.114Z" fill="#6f7aa3" stroke-linecap="round" opacity="1" stroke-linejoin="round"/>
<path stroke="#373c4f" stroke-width="12" d="M226.285+418.06C223.711+419.347+225.772+418.411+229.86+414.128C233.468+410.348+237.221+406.692+240.583+402.69C242.241+400.716+243.374+398.354+244.872+396.256C254.261+383.112+260.457+355.085+258.455+339.066C256.719+325.182+239.72+317.139+227+321.909C224.669+322.784+212.724+332.643+211.273+331.918C210.644+331.603+211.461+326.424+211.273+325.484C210.461+321.425+208.585+316.806+206.269+313.331C201.467+306.128+179.25+298.594+170.525+300.463C155.197+303.748+128.933+320.282+124.773+336.922C123.688+341.263+130.001+354.57+127.633+356.938C125.952+358.619+120.625+351.754+119.769+351.219C115.366+348.467+109.112+347.654+104.042+346.93C84.601+344.153+56.5716+354.753+48.2819+374.095C41.8966+388.994+44.1541+404.212+59.005+412.698C67.2009+417.382+74.6376+417.702+84.0256+417.702C85.9319+417.702+89.7446+417.702+89.7446+417.702C89.7446+417.702+85.7521+418.768+84.0256+419.847C78.7293+423.157+72.7446+427.554+68.2984+432C53.9744+446.324+40.1926+467.142+42.5629+488.475C44.6708+507.445+70.8418+519.549+86.8851+510.636C90.3729+508.698+104.363+494.909+107.616+494.909C109.464+494.909+101.488+517.174+101.183+517.785C95.5913+528.967+78.8882+563.437+93.3189+574.26C108.097+585.343+136.777+564.26+144.79+552.813C147.751+548.583+150.277+545.645+151.939+540.661C152.115+540.131+153.408+534.942+154.083+534.942C154.667+534.942+159.329+546.03+159.802+547.094C166.05+561.153+167.404+581.36+165.521+596.421C162.712+618.897+147.238+665.265+116.91+661.474C111.14+660.753+71.3387+652.624+81.1661+637.883C82.6894+635.598+88.4627+633.052+91.1743+633.594C92.3417+633.828+97.2423+638.127+97.6082+637.883C103.006+634.285+82.8776+622.012+81.1661+621.441C49.1634+610.774+24.3855+666.513+51.1414+684.35C63.4771+692.574+79.3112+691.655+93.3189+692.929C160.249+699.013+191.215+632.705+195.546+576.404C196.642+562.158+192.089+550.605+186.967+537.801C186.417+536.425+176.125+524.06+176.959+523.504C179.701+521.675+189.178+532.668+191.257+534.227C202.703+542.811+213.368+556.711+229.145+554.958C237.062+554.078+246.103+555.481+252.736+549.954C263.4+541.067+266.813+517.223+253.451+509.206C251.803+508.218+248.446+504.426+248.446+506.347C248.446+511.658+286.535+520.844+290.624+524.933C304.907+539.217+305.986+559.278+301.347+577.834C297.132+594.695+284.865+615.459+265.603+617.867C257.954+618.823+249.889+610.731+244.872+605.714C242.591+603.433+245.913+593.173+246.302+593.561C247.08+594.34+237.785+604.315+237.008+605.714C229.868+618.567+224.33+644.242+244.872+647.177C307.918+656.183+341.583+597.941+336.376+540.661C334.5+520.027+309.311+497.423+289.194+494.909C281.13+493.901+271.766+495.086+264.174+492.049C262.39+491.336+258.455+491.334+258.455+491.334C258.455+491.334+260.379+491.521+261.314+491.334C266.447+490.308+271.801+489.159+276.326+486.33C285.241+480.759+301.1+461.518+297.773+449.872C294.944+439.973+280.168+429.23+269.893+431.285C264.299+432.404+260.795+437.134+255.595+438.434C254.642+438.672+252.736+439.149+252.736+439.149C252.736+439.149+256.624+436.385+258.455+434.859C265.341+429.121+276.48+424.074+285.62+423.421C312.808+421.479+332.949+419.167+354.963+436.289C375.556+452.306+379.94+495.277+349.958+502.772C341.289+504.94+341.94+495.624+337.091+495.624C336.251+495.624+338.476+499.778+338.52+499.913C340.492+505.826+342.861+510.81+348.529+514.21C382.601+534.654+421.34+476.453+415.727+445.582C412.239+426.401+402.665+414.258+385.702+404.835C337.175+377.875+279.422+407.368+237.723+433.43C221.476+443.584+213.337+454.718+203.409+470.603C202.712+471.719+194.174+482.871+194.831+484.186C195.383+485.29+199.687+482.559+200.55+482.041C208.041+477.546+226.951+470.406+230.575+484.901C232.352+492.012+217.137+508.825+210.558+509.921C200.083+511.667+164.828+492.082+159.087+483.471C153.324+474.826+161.116+456.576+169.095+452.016C171.818+450.46+179.962+449.265+182.678+451.301C183.957+452.261+186.421+455.591+184.823+455.591C173.278+455.591+173.156+437.233+179.104+431.285C181.417+428.972+191.457+424.931+194.831+426.281C197.532+427.361+199.923+433.342+201.98+431.285C202.699+430.566+198.127+427.578+197.69+426.996C194.396+422.603+190.936+415.383+189.827+409.839C189.352+407.466+196.85+395.836+200.55+397.686C201.884+398.353+196.664+401.652+196.261+401.975C192.819+404.729+189.731+407.099+186.967+410.554C175.572+424.798+170.195+432.571+152.653+439.149C150.989+439.773+133.352+441.885+133.352+439.864C133.352+436.835+138.262+429.204+139.071+425.566C143.838+404.113+151.002+382.557+168.381+367.661C192.509+346.98+216.168+349.832+235.579+374.095C241.903+382+236.145+400.956+232.004+408.409C230.058+411.912+227.559+414.938+225.57+418.417C225.042+419.343+224.894+422.03+224.141+421.277C222.178+419.314+226.875+417.765+226.285+418.06Z" fill="#6f7aa3" stroke-linecap="round" opacity="1" stroke-linejoin="round"/>
<path stroke="#373c4f" stroke-width="12" d="M140.143+94.2223C136.429+86.9245+138.478+80.6697+137.641+73.1336C135.518+54.0303+126.451+38.5825+105.472+35.9601C100.218+35.3034+95.0075+35.3023+89.7446+35.9601C76.4625+37.6204+43.6134+53.8757+36.8439+67.4146C32.4861+76.1302+30.4101+85.7626+30.4101+95.2946C30.4101+95.5971+30.197+98.1541+31.125+98.1541C32.9673+98.1541+42.9521+81.8431+43.9927+80.2823C54.0843+65.1448+78.5962+51.5517+89.7446+73.8484C91.8008+77.9608+94.7282+81.6505+96.1784+86.0013C96.9687+88.3721+98.7799+107.447+94.7487+107.447C92.2156+107.447+91.4871+103.058+89.0297+102.443C79.8761+100.155+65.0833+101.235+58.2901+108.877C31.3259+139.212+39.4377+194.723+72.5876+216.823C83.5968+224.163+101.849+232.005+115.48+228.976C141.804+223.126+168.387+196.861+164.806+168.212C162.823+152.349+133.449+149.934+122.629+155.344C117.954+157.682+114.409+168.031+112.621+172.501C107.505+185.29+120.62+162.773+129.777+169.641C137.51+175.441+131.333+188.817+126.203+193.947C110.799+209.351+92.9383+192.712+90.4594+175.36C85.5605+141.068+127.272+107.326+158.372+124.604C164.036+127.751+172.051+135.616+174.1+141.761C175.4+145.664+172.131+153.914+176.244+153.914C177.31+153.914+177.278+152.044+177.674+151.055C180.552+143.86+183.851+137.599+189.112+131.753C203.238+116.058+232.188+89.0441+253.451+110.307C260.706+117.563+270.955+133.858+273.467+143.906C279.768+169.111+272.617+220.397+237.723+220.397C218.571+220.397+227.334+191.469+234.864+183.939C237.879+180.923+244.75+177.759+249.161+179.65C253.182+181.373+255.595+191.088+255.595+191.088C255.595+191.088+255.432+180.834+252.736+176.79C247.217+168.512+236.935+162.214+227+163.208C180.52+167.856+158.373+256.642+209.128+271.868C230.145+278.173+251.628+269.004+265.603+253.282C269.374+249.039+272.639+244.781+273.467+238.984C273.91+235.881+272.093+228.289+274.897+229.691C281.32+232.903+282.489+246.355+290.624+250.422C321.874+266.047+351.556+241.802+358.537+210.389C361.683+196.232+354.749+176.851+343.525+167.497C338.867+163.616+335.611+158.893+329.942+156.059C327.447+154.812+320.831+155.694+322.078+153.199C322.6+152.157+334.229+155.631+337.091+153.914C352.349+144.759+362.509+122.6+349.244+106.018C341.888+96.8232+327.494+94.3445+317.074+100.299C313.224+102.499+308.738+105.775+305.636+108.877C304.207+110.307+301.347+115.188+301.347+113.166C301.347+106.911+316.684+96.9197+321.363+94.5797C330.239+90.142+342.902+84.2435+352.818+83.1418C384.296+79.6443+427.289+106.457+422.875+141.761C421.213+155.06+412.386+162.548+405.719+173.216C386.476+204.004+372.084+236.65+396.425+268.294C431.151+313.438+503.96+329.27+556.557+314.761C577.654+308.941+598.86+298.473+607.313+276.872C626.08+228.913+625.547+143.312+567.28+123.89C557.988+120.792+549.437+117.806+539.4+120.315C512.196+127.116+495.114+190.402+516.524+207.53C520.535+210.739+528.376+211.255+532.966+208.959C534.644+208.12+538.97+205.528+538.685+205.385C538.511+205.298+532.097+206.355+530.821+206.1C526.188+205.173+526.702+189.183+527.247+185.369C529.589+168.972+547.35+165.997+556.557+177.505C584.266+212.141+542.072+277.964+496.507+245.418C470.839+227.084+462.789+175.719+472.202+147.48C477.592+131.309+490.359+117.41+496.507+101.014C504.475+79.7676+507.2+42.2786+480.78+30.956C460.106+22.0956+436.002+23.6781+415.727+33.8155C408.61+37.3741+401.56+42.2249+393.566+43.8238C361.646+50.2077+342.989+18.3436+316.359+25.9519C303.284+29.6877+283.45+46.8105+280.616+60.9807C279.859+64.7657+282.84+75.1989+279.901+78.1377C279.564+78.4747+279.901+77.1845+279.901+76.7079C279.901+73.4609+273.465+67.4118+271.322+64.5551C264.67+55.6851+255.485+50.784+244.157+52.4022C234.69+53.7546+221.923+61.6518+218.422+70.9889C217.399+73.7157+215.123+88.1459+210.558+88.1459C210.345+88.1459+208.247+70.3277+200.55+64.5551C183.254+51.5829+164.151+58.8856+151.939+73.1336C148.066+77.6518+141.64+97.1626+140.143+94.2223Z" fill="#6f7aa3" stroke-linecap="round" opacity="1" stroke-linejoin="round"/>
</g>
<g id="Fore 1 copy" vectornator:layerName="Fore 1 copy">
<path stroke="#788042" stroke-width="10" d="M100.311+91.1312C62.513+92.7824+43.2492+136.79+48.5558+170.375C61.1184+214.983+118.826+237.78+156.489+209.474C167.702+194.673+177.853+169.69+163.125+154.098C145.292+137.345+101.473+146.522+111.496+176.626C115.063+180.807+118.968+173.611+122.57+175.884C123.501+178.447+124.264+181.634+122.683+184.106C92.1215+201.305+87.6174+143.867+109.479+131.313C131.019+118.418+170.188+118.926+177.665+146.207C191.558+123.951+222.753+104.619+250.309+112.99C277.859+133.707+290.599+197.058+247.081+206.301C234.008+201.782+241.207+176.734+253.589+192.291C255.413+192.575+257.224+191.199+257.553+189.407C257.142+161.074+221.187+155.909+204.468+174.737C178.365+194.911+174.004+240.668+202.775+260.713C227.092+271.611+269.335+268.895+273.408+235.486C273.879+236.622+268.777+236.645+269.473+236.741C305.602+273.765+370.405+235.139+361.333+185.748C357.09+170.902+341.116+155.114+327.542+154.924C328.594+155.758+327.426+158.033+327.246+158.197C387.424+158.471+356.019+64.1811+307.872+102.544C305.964+103.352+314.47+103.203+311.459+107.152C319.75+96.6879+331.302+87.2865+344.773+84.1853C396.021+67.6248+460.45+144.266+409.19+182.661C405.359+187.593+402.589+193.255+400.138+198.971C395.704+209.968+393.675+221.823+392.95+233.616C397.772+303.844+489.606+331.545+548.083+313.535C622.781+281.858+636.857+142.961+549.33+119.548C496.245+109.002+480.982+200.004+528.769+214.391C533.525+214.459+540.626+215.655+543.08+210.546C530.726+198.961+540.902+163.713+558.967+185.683C575.776+217.813+544.442+254.947+509.781+248.33C430.439+212.628+509.251+120.798+505.712+63.4791C476.084-17.9414+397.42+77.8279+345.115+34.4369C335.361+31.9842+325.423+29.1739+315.26+29.9712C302.819+30.7161+290.816+36.1836+281.641+44.5324C274.368+51.1268+272.67+61.4258+272.455+70.7615C278.303+68.1833+262.33+54.9789+257.332+51.3664C235.436+37.9244+208.121+61.6905+203.832+81.4219C200+48.9642+133.408+52.3779+133.898+91.2257C134.364+93.5333+137.653+94.4761+139.245+92.6933C144.194+67.762+126.223+32.1528+98.4777+29.8658C72.9258+29.515+39.4437+39.8774+35.3084+69.0624C33.6735+76.5579+34.8035+88.8594+43.6146+90.7035C58.0679+57.0207+101.863+58.052+98.699+97.7552C109.712+80.0549+89.7969+49.0753+68.9957+59.3474C57.535+64.3706+50.0545+74.8632+42.5863+84.339C42.0391+81.3908+39.3964+63.3904+46.6945+56.3825C59.9388+39.7388+83.8555+34.8138+104.103+36.9815C123.712+44.3409+134.582+69.0581+134.213+88.8793C134.09+88.295+140.441+86.2477+140.096+90.1081C146.414+55.6986+192.6+60.685+205.914+86.7299C213.969+60.0782+254.23+37.6261+270.156+73.5391C271.597+75.4605+274.426+76.8827+276.623+75.2856C280.071+63.4282+280.312+47.1874+295.359+42.3012C303.877+37.3754+313.924+35.3072+323.701+36.2822C332.757+37.4371+341.63+39.7982+350.354+42.4465C397.96+79.1814+442.81+10.9057+489.323+44.3954C528.221+102.463+441.2+159.237+473.451+220.764C479.268+254.936+518.148+263.142+545.274+247.832C569.541+235.691+578.334+197.795+560.143+177.521C538.239+157.308+521.065+195.809+536.865+210.674C535.636+210.438+538.967+206.61+537.089+207.676C495.488+207.761+496.997+131.145+536.491+125.679C626.112+131.17+619.585+271.922+550.674+305.033C496.307+326.232+407.672+301.145+399.414+235.781C399.821+223.967+401.863+212.061+406.302+201.066C408.554+195.925+411.025+190.789+414.54+186.378C474.65+138.166+385.477+46.0679+327.913+84.0744C319.374+89.9571+308.623+96.6501+305.352+106.706C305.818+108.899+308.586+109.84+310.391+108.689C346.988+74.8014+377.893+149.102+329.597+150.547C326.587+151.496+322.412+152.156+321.504+155.716C332.746+163.508+353.423+171.26+355.273+189.678C360.53+234.461+301.912+263.707+271.228+230.455C264.553+256.805+234.017+266.122+208.45+256.615C169.669+233.665+195.678+163.576+238.995+170.772C245.056+174.602+250.286+180.631+251.138+187.99C262.867+185.041+238.592+174.99+235.34+185.445C223.526+215.228+264.559+220.855+274.885+195.741C291.147+167.157+278.03+124.582+251.874+106.179C224.271+99.2418+189.338+113.701+175.977+139.435C173.783+141.638+181.772+139.312+181.01+141.318C171.623+106.463+111.962+109.442+95.7715+137.907C78.2574+159.106+94.7372+210.099+126.188+190.412C131.135+186.018+131.201+178.514+128.591+172.868C127.487+165.612+108.465+169.313+116.965+173.172C112.871+148.518+149.269+147.624+160.934+161.489C167.946+175.475+160.35+192.647+152.013+204.524C117.568+229.625+65.6576+208.417+54.7015+167.872C50.2132+135.388+70.258+102.725+100.311+91.1312" fill="#9aa7d6" stroke-linecap="round" opacity="1" stroke-linejoin="round"/>
<path stroke="#788042" stroke-width="10" d="M732.89+433.906C724.189+396.671+758.866+355.987+798.098+353.757C844.909+348.545+849.152+404.995+822.446+429.28C824.438+432.57+827.607+430.596+829.511+428.772C853.036+391.328+906.55+432.869+862.373+455.821C901.261+452.132+900.993+501.085+863.146+501.653C874.046+507.275+890.587+518.064+891.014+535.644C881.089+578.739+804.424+581.348+819.794+636.522C829.76+663.76+874.548+674.075+883.828+640.849C889.172+628.479+860.101+622.123+867.726+632.849C883.223+625.591+899.431+651.64+886.17+664.528C874.456+677.289+857.262+692.232+838.575+690.242C823.654+685.262+812.283+673.53+800.77+663.36C775.715+603.394+687.43+607.26+661.575+664.45C657.961+669.438+652.94+673.088+647.676+676.159C602.476+704.489+531.487+688.845+505.79+641.424C475.999+584.059+507.003+494.78+577.166+488.534C636.249+489.391+657.112+611.226+587.175+613.161C553.704+615.998+536.617+558.871+574.035+554.204C563.854+560.284+569.717+586.896+587.607+581.784C601.665+576.258+605.233+556.224+600.108+543.348C561.398+488.618+491.365+566.427+531.594+611.64C536.548+622.823+542.709+634.171+553.228+641.042C609.983+686.614+649.001+621.513+679.665+583.47C716.451+577.915+774.051+611.423+780.327+549.724C781.653+545.148+784.563+541.157+788.501+538.487C793.939+528.181+812.285+541.621+810.209+536.858C808.568+534.545+813.18+533.158+813.463+533.247C789.881+517.207+808.607+491.63+824.43+480.263C823.951+478.437+821.816+477.547+820.188+478.207C803.592+495.534+778.465+487.353+774.43+466.639C766.728+495.913+737.97+497.001+724.912+472.09C729.109+505.995+772.195+504.46+777.44+471.891C776.266+474.35+772.481+471.974+772.387+471.285C772.939+498.461+807.106+499.697+822.504+484.175C822.901+483.978+819.551+485.046+819.64+483.863C817.863+482.86+817.765+480.193+819.124+478.943C790.251+485.816+789.343+541.729+816.471+535.963C768.678+499.091+777.18+607.598+727.832+580.954C720.295+578.645+712.607+576.829+704.897+575.201C695.256+573.547+684.65+573.587+675.896+578.452C668.194+583.219+662.202+590.181+656.665+597.236C642.557+645.24+582.061+669.711+547.136+626.73C531.421+602.867+516.96+567.788+539.232+543.141C553.434+525.432+588.42+527.055+595.609+550.297C602.092+583.482+562.705+578.099+578.729+549.619C574.089+546.01+567.125+547.333+562.36+550.115C506.425+592.467+606.32+654.236+632.34+593.933C644.068+554.549+631.898+491.373+584.815+482.302C511.614+480.15+471.81+567.771+493.807+630.641C513.53+690.78+596.363+714.04+648.825+683.002C654.47+679.706+660.208+676.235+664.44+671.147C689.331+613.344+775.001+610.738+798.935+670.828C812.141+681.184+824.661+695.662+842.389+697.229C862.338+695.506+881.824+681.726+892.982+665.599C909.072+646.832+880.64+612.409+862.063+629.651C861.034+631.456+862.01+634.007+864.017+634.604C887.77+628.662+872.668+656.599+858.251+656.291C845.299+656.476+833.571+646.038+826.521+635.962C810.651+579.675+900.963+581.362+896.974+529.836C893.131+521.166+889.61+511.551+882.615+504.974C876.629+500.452+861.785+496.472+867.878+505.958C909.024+507.42+909.419+445.162+866.836+451.318C866.505+451.166+870.859+454.959+867.889+456.576C920.564+429.752+848.446+380.326+824.167+424.377C822.332+425.536+829.403+422.533+828.373+425.988C830.503+425.828+827.305+430.659+828.434+429.31C860.671+403.195+847.795+343.504+801.382+347.061C760.196+347.145+714.645+389.59+728.461+432.058C728.241+431.616+727.766+427.153+730.24+427.79C730.358+425.142+734.417+429.083+734.084+428.65C721.756+411.294+690.953+411.179+677.702+427.777C658.611+454.737+670.841+500.307+703.717+509.927C725.374+514.966+745.329+490.029+729.732+471.902C737.102+491.393+715.455+512.763+697.171+500.134C678.366+488.713+671.564+463.499+677.299+442.999C683.029+416.712+718.935+418.073+732.89+433.906" fill="#9aa7d6" stroke-linecap="round" opacity="1" stroke-linejoin="round"/>
<path stroke="#788042" stroke-width="10" d="M692.728+93.0863C618.593+94.4648+719.134-0.391215+727.116+68.4025C754.938+24.2813+827.948+59.7633+795.731+105.798C811.771+88.0146+840.227+73.82+866.178+85.5925C882.075+99.8376+875.105+125.506+859.327+135.722C859.537+137.41+861.184+138.673+862.85+138.569C898.274+125.4+907.05+188.423+869.029+184.388C923.494+227.005+817.511+217.705+822.671+260.244C829.91+281.642+872.708+288.029+877.247+261.814C888.537+274.639+872.295+294.359+858.346+302.807C813.966+332.11+740.542+268.348+799.061+235.095C784.296+229.747+767.09+213.747+773.588+193.983C788.116+181.301+809.403+182.369+826.372+177.886C844.666+154.537+816.449+129.298+796.032+120.407C762.689+112.521+717.374+136.978+723.505+175.563C726.17+210.268+753.522+256.724+716.077+282.253C696.177+289.484+681.754+272.025+684.004+252.909C690.86+229.47+703.729+240.792+711.038+252.926C716.274+254.223+721.384+250.292+722.814+245.365C724.897+237.649+724.858+229.122+722.076+221.584C692.064+190.316+669.023+139.232+713.453+108.789C713.618+106.807+711.808+105.175+709.906+105.154C687.649+116.486+695.259+98.4822+696.837+88.7635C690.071+93.6108+682.832+102.866+687.479+111.274C692.765+118.413+713.778+113.187+707.639+106.718C662.444+137.706+684.906+191.736+716.072+223.451C718.487+229.417+718.378+236.161+717.188+242.396C716.855+246.547+712.17+248.276+709.063+245.581C709.264+221.333+676.346+234.322+677.662+253.508C675.038+278.065+696.925+297.273+720.414+287.421C758.516+260.076+735.275+212.797+730.012+176.287C723.425+140.687+766.833+118.445+796.834+127.533C811.181+136.807+834.933+153.494+822.151+172.943C804.766+174.438+785.324+177.199+770.439+187.87C758.881+205.153+771.574+236.101+794.015+237.079C793.098+236.709+792.091+234.875+792.794+233.666C776.319+242.111+760.266+266.643+774.886+285.565C797.928+328.419+871.98+323.374+887.819+277.448C888.715+269.113+884.871+255.894+874.743+256.214C872.046+280.279+824.039+275.888+830.072+250.948C840.602+223.555+884.497+240.682+892.641+208.812C897.94+198.203+874.624+178.069+872.978+189.202C916.621+192.856+904.036+116.994+862.665+132.024C862.811+131.931+867.351+133.818+865.646+136.15C883.449+130.153+888.142+94.5964+870.77+80.6765C846.286+69.5694+811.052+73.8433+796.58+99.0891C792.717+101.913+803.776+98.9127+800.771+104.068C838.926+55.232+754.103+15.5755+726.33+61.1864C723.67+62.3841+730.983+63.2054+729.878+62.9828C721.55-6.19698+610.721+79.6193+680.908+101.289C685.914+100.917+689.565+96.392+692.728+93.0863" fill="#9aa7d6" stroke-linecap="round" opacity="1" stroke-linejoin="round"/>
<path stroke="#788042" stroke-width="10" d="M253.208+432.182C254.701+432.584+255.327+435.619+257.159+434.992C298.241+411.264+373.184+416.018+379.015+473.878C381.731+492.338+361.803+505.358+345.787+500.287C341.327+504.6+346.454+511.423+350.234+514.531C380.742+529.945+412.296+496.748+422.822+470.607C424.542+346.123+242.715+387.258+202.779+468.747C186.636+491.751+212.313+484.939+226.129+479.364C217.458+533.926+126.842+462.967+187.311+459.12C168.47+446.457+186.982+429.229+204.815+429.514C194.225+423.703+198.859+409.154+200.157+397.782C184.33+415.22+159.638+425.332+136.109+431.95C134.574+438.718+136.506+439.046+138.475+432.874C162.584+434.15+186.213+424.403+199.375+403.114C199.677+402.865+196.329+404.163+195.958+402.669C192.889+398.194+189.779+417.034+190.98+422.028C192.157+429.071+205.228+434.726+201.489+424.434C183.251+421.258+158.362+447.515+181.482+459.236C179.936+458.656+183.19+454.873+182.346+455.405C161.004+449.048+150.853+476.617+166.06+490.129C184.287+508.488+225.577+514.918+232.231+482.12C232.219+463.741+209.484+478.157+200.21+481.136C202.96+481.316+201.939+486.453+203.476+482.126C235.753+417.204+332.522+371.073+396.836+414.219C436.215+442.659+414.726+499.423+373.341+511.672C362.611+518.246+351.829+504.013+347.417+506.061C363.343+512.063+383.1+498.927+384.825+482.13C390.164+415.648+302.037+399.744+255.796+428.568C252.934+429.689+266.657+425.293+259.664+431.464C260.263+432.502+258.987+434.087+258.132+434.589C269.966+430.499+290.329+427.376+296.281+441.935C299.043+464.761+272.088+473.52+263.395+487.59C263.807+489.975+265.39+492.195+267.692+493.067C348.103+501.027+346.462+624.539+273.942+643.946C261.202+643.898+238.235+645.454+236.398+628.726C237.43+620.903+238.765+610.801+246.388+606.591C245.09+606.99+243.552+605.369+243.566+604.4C242.554+617.717+259.03+627.07+270.32+620.347C327.254+598.604+310.741+506.218+251.619+506.48C249.513+506.893+248.265+509.497+249.343+511.379C271.425+520.756+267.096+558.565+242.177+559.516C216.165+558.007+205.912+529.819+188.387+515.341C178.226+524.008+200.411+533.091+203.075+543.686C229.526+618.355+146.415+711.47+70.245+686.48C21.3614+672.952+68.6771+596.78+98.019+634.767C97.8447+636.121+101.127+630.438+102.829+633.165C92.092+621.801+71.0555+634.814+77.0275+649.689C80.2488+662.812+91.9307+673.031+105.767+672.639C162.45+659.613+200.033+582.184+162.361+533.559C160.277+531.56+156.687+531.219+154.56+533.341C145.483+554.841+122.858+590.359+95.4376+574.715C76.9484+549.393+109.204+519.41+119.138+497.988C100.379+503.159+72.1909+513.439+53.5059+495.343C40.2045+464.895+71.2706+443.545+90.5562+426.958C91.4588+424.203+89.2945+421.294+86.5219+420.915C13.1708+412.633+77.1401+321.033+126.672+357.307C128.75+356.937+130.144+354.677+129.632+352.648C116.597+310.23+193.21+301.505+211.445+333.055C221.291+330.046+232.157+321.437+243.016+326.725C281.517+348.432+257.052+399.954+226.378+416.749C228.854+415.583+230.454+419.659+230.074+420.416C244.81+400.842+250.104+362.515+219.271+355.687C180.152+343.921+127.36+389.135+147.724+426.261C140.778+390.523+180.755+352.222+217.971+362.14C250.123+370.169+227.105+406.656+225.922+423.104C262.185+407.658+289.39+350.976+250.33+322.684C238.406+314.575+222.344+319.6+211.993+326.355C191.511+289.959+106.119+308.549+122.983+353.932C122.699+352.281+124.174+350.543+125.854+350.644C98.1316+336.561+56.0175+348.21+45.8202+379.419C34.9847+403.344+67.7977+432.578+84.0075+425.338C59.7968+439.368+32.2984+469.804+48.7123+499.951C67.0985+515.484+96.5986+516.834+116.404+502.858C116.281+503.115+111.237+500.492+113.403+498.271C96.3345+519.874+65.0953+561.744+96.9032+583.384C126.544+595.184+151.996+557.15+158.617+538.937C190.518+584.426+156.637+652.482+105.896+666.085C92.4251+667.392+78.2443+651.196+84.8222+638.614C95.5939+633.578+113.696+640.747+98.2486+622.89C59.1883+598.472+17.9798+665.348+60.1491+688.58C149.669+734.402+264.709+592.981+191.1+518.223C190.393+515.936+189.51+524.766+186.065+521.317C203.046+539.724+219.096+570.387+248.718+565.273C273.908+558.46+278.581+519.293+254.625+507.703C255.613+508.508+255.894+511.903+253.775+512.561C300.125+513.753+320.078+592.862+269.261+613.587C257.604+622.103+249.636+608.229+246.847+600.205C232.356+603.1+228.226+623.426+230.999+635.94C241.25+652.126+266.117+653.227+282.964+647.908C354.933+620.4+352.828+496.726+270.229+487.078C283.292+479.914+306.455+461.203+302.501+440.009C296.043+421.094+264.799+420.435+253.208+432.182" fill="#9aa7d6" stroke-linecap="round" opacity="1" stroke-linejoin="round"/>
</g>
<g id="Fore 1" vectornator:layerName="Fore 1">
<path stroke="#8a0c58" stroke-width="3" d="M100.311+91.1312C62.513+92.7824+43.2492+136.79+48.5558+170.375C61.1184+214.983+118.826+237.78+156.489+209.474C167.702+194.673+177.853+169.69+163.125+154.098C145.292+137.345+101.473+146.522+111.496+176.626C115.063+180.807+118.968+173.611+122.57+175.884C123.501+178.447+124.264+181.634+122.683+184.106C92.1215+201.305+87.6174+143.867+109.479+131.313C131.019+118.418+170.188+118.926+177.665+146.207C191.558+123.951+222.753+104.619+250.309+112.99C277.859+133.707+290.599+197.058+247.081+206.301C234.008+201.782+241.207+176.734+253.589+192.291C255.413+192.575+257.224+191.199+257.553+189.407C257.142+161.074+221.187+155.909+204.468+174.737C178.365+194.911+174.004+240.668+202.775+260.713C227.092+271.611+269.335+268.895+273.408+235.486C273.879+236.622+268.777+236.645+269.473+236.741C305.602+273.765+370.405+235.139+361.333+185.748C357.09+170.902+341.116+155.114+327.542+154.924C328.594+155.758+327.426+158.033+327.246+158.197C387.424+158.471+356.019+64.1811+307.872+102.544C305.964+103.352+314.47+103.203+311.459+107.152C319.75+96.6879+331.302+87.2865+344.773+84.1853C396.021+67.6248+460.45+144.266+409.19+182.661C405.359+187.593+402.589+193.255+400.138+198.971C395.704+209.968+393.675+221.823+392.95+233.616C397.772+303.844+489.606+331.545+548.083+313.535C622.781+281.858+636.857+142.961+549.33+119.548C496.245+109.002+480.982+200.004+528.769+214.391C533.525+214.459+540.626+215.655+543.08+210.546C530.726+198.961+540.902+163.713+558.967+185.683C575.776+217.813+544.442+254.947+509.781+248.33C430.439+212.628+509.251+120.798+505.712+63.4791C476.084-17.9414+397.42+77.8279+345.115+34.4369C335.361+31.9842+325.423+29.1739+315.26+29.9712C302.819+30.7161+290.816+36.1836+281.641+44.5324C274.368+51.1268+272.67+61.4258+272.455+70.7615C278.303+68.1833+262.33+54.9789+257.332+51.3664C235.436+37.9244+208.121+61.6905+203.832+81.4219C200+48.9642+133.408+52.3779+133.898+91.2257C134.364+93.5333+137.653+94.4761+139.245+92.6933C144.194+67.762+126.223+32.1528+98.4777+29.8658C72.9258+29.515+39.4437+39.8774+35.3084+69.0624C33.6735+76.5579+34.8035+88.8594+43.6146+90.7035C58.0679+57.0207+101.863+58.052+98.699+97.7552C109.712+80.0549+89.7969+49.0753+68.9957+59.3474C57.535+64.3706+50.0545+74.8632+42.5863+84.339C42.0391+81.3908+39.3964+63.3904+46.6945+56.3825C59.9388+39.7388+83.8555+34.8138+104.103+36.9815C123.712+44.3409+134.582+69.0581+134.213+88.8793C134.09+88.295+140.441+86.2477+140.096+90.1081C146.414+55.6986+192.6+60.685+205.914+86.7299C213.969+60.0782+254.23+37.6261+270.156+73.5391C271.597+75.4605+274.426+76.8827+276.623+75.2856C280.071+63.4282+280.312+47.1874+295.359+42.3012C303.877+37.3754+313.924+35.3072+323.701+36.2822C332.757+37.4371+341.63+39.7982+350.354+42.4465C397.96+79.1814+442.81+10.9057+489.323+44.3954C528.221+102.463+441.2+159.237+473.451+220.764C479.268+254.936+518.148+263.142+545.274+247.832C569.541+235.691+578.334+197.795+560.143+177.521C538.239+157.308+521.065+195.809+536.865+210.674C535.636+210.438+538.967+206.61+537.089+207.676C495.488+207.761+496.997+131.145+536.491+125.679C626.112+131.17+619.585+271.922+550.674+305.033C496.307+326.232+407.672+301.145+399.414+235.781C399.821+223.967+401.863+212.061+406.302+201.066C408.554+195.925+411.025+190.789+414.54+186.378C474.65+138.166+385.477+46.0679+327.913+84.0744C319.374+89.9571+308.623+96.6501+305.352+106.706C305.818+108.899+308.586+109.84+310.391+108.689C346.988+74.8014+377.893+149.102+329.597+150.547C326.587+151.496+322.412+152.156+321.504+155.716C332.746+163.508+353.423+171.26+355.273+189.678C360.53+234.461+301.912+263.707+271.228+230.455C264.553+256.805+234.017+266.122+208.45+256.615C169.669+233.665+195.678+163.576+238.995+170.772C245.056+174.602+250.286+180.631+251.138+187.99C262.867+185.041+238.592+174.99+235.34+185.445C223.526+215.228+264.559+220.855+274.885+195.741C291.147+167.157+278.03+124.582+251.874+106.179C224.271+99.2418+189.338+113.701+175.977+139.435C173.783+141.638+181.772+139.312+181.01+141.318C171.623+106.463+111.962+109.442+95.7715+137.907C78.2574+159.106+94.7372+210.099+126.188+190.412C131.135+186.018+131.201+178.514+128.591+172.868C127.487+165.612+108.465+169.313+116.965+173.172C112.871+148.518+149.269+147.624+160.934+161.489C167.946+175.475+160.35+192.647+152.013+204.524C117.568+229.625+65.6576+208.417+54.7015+167.872C50.2132+135.388+70.258+102.725+100.311+91.1312" fill="#ff74c8" stroke-linecap="round" opacity="1" stroke-linejoin="round"/>
<path stroke="#8a0c58" stroke-width="3" d="M732.89+433.906C724.189+396.671+758.866+355.987+798.098+353.757C844.909+348.545+849.152+404.995+822.446+429.28C824.438+432.57+827.607+430.596+829.511+428.772C853.036+391.328+906.55+432.869+862.373+455.821C901.261+452.132+900.993+501.085+863.146+501.653C874.046+507.275+890.587+518.064+891.014+535.644C881.089+578.739+804.424+581.348+819.794+636.522C829.76+663.76+874.548+674.075+883.828+640.849C889.172+628.479+860.101+622.123+867.726+632.849C883.223+625.591+899.431+651.64+886.17+664.528C874.456+677.289+857.262+692.232+838.575+690.242C823.654+685.262+812.283+673.53+800.77+663.36C775.715+603.394+687.43+607.26+661.575+664.45C657.961+669.438+652.94+673.088+647.676+676.159C602.476+704.489+531.487+688.845+505.79+641.424C475.999+584.059+507.003+494.78+577.166+488.534C636.249+489.391+657.112+611.226+587.175+613.161C553.704+615.998+536.617+558.871+574.035+554.204C563.854+560.284+569.717+586.896+587.607+581.784C601.665+576.258+605.233+556.224+600.108+543.348C561.398+488.618+491.365+566.427+531.594+611.64C536.548+622.823+542.709+634.171+553.228+641.042C609.983+686.614+649.001+621.513+679.665+583.47C716.451+577.915+774.051+611.423+780.327+549.724C781.653+545.148+784.563+541.157+788.501+538.487C793.939+528.181+812.285+541.621+810.209+536.858C808.568+534.545+813.18+533.158+813.463+533.247C789.881+517.207+808.607+491.63+824.43+480.263C823.951+478.437+821.816+477.547+820.188+478.207C803.592+495.534+778.465+487.353+774.43+466.639C766.728+495.913+737.97+497.001+724.912+472.09C729.109+505.995+772.195+504.46+777.44+471.891C776.266+474.35+772.481+471.974+772.387+471.285C772.939+498.461+807.106+499.697+822.504+484.175C822.901+483.978+819.551+485.046+819.64+483.863C817.863+482.86+817.765+480.193+819.124+478.943C790.251+485.816+789.343+541.729+816.471+535.963C768.678+499.091+777.18+607.598+727.832+580.954C720.295+578.645+712.607+576.829+704.897+575.201C695.256+573.547+684.65+573.587+675.896+578.452C668.194+583.219+662.202+590.181+656.665+597.236C642.557+645.24+582.061+669.711+547.136+626.73C531.421+602.867+516.96+567.788+539.232+543.141C553.434+525.432+588.42+527.055+595.609+550.297C602.092+583.482+562.705+578.099+578.729+549.619C574.089+546.01+567.125+547.333+562.36+550.115C506.425+592.467+606.32+654.236+632.34+593.933C644.068+554.549+631.898+491.373+584.815+482.302C511.614+480.15+471.81+567.771+493.807+630.641C513.53+690.78+596.363+714.04+648.825+683.002C654.47+679.706+660.208+676.235+664.44+671.147C689.331+613.344+775.001+610.738+798.935+670.828C812.141+681.184+824.661+695.662+842.389+697.229C862.338+695.506+881.824+681.726+892.982+665.599C909.072+646.832+880.64+612.409+862.063+629.651C861.034+631.456+862.01+634.007+864.017+634.604C887.77+628.662+872.668+656.599+858.251+656.291C845.299+656.476+833.571+646.038+826.521+635.962C810.651+579.675+900.963+581.362+896.974+529.836C893.131+521.166+889.61+511.551+882.615+504.974C876.629+500.452+861.785+496.472+867.878+505.958C909.024+507.42+909.419+445.162+866.836+451.318C866.505+451.166+870.859+454.959+867.889+456.576C920.564+429.752+848.446+380.326+824.167+424.377C822.332+425.536+829.403+422.533+828.373+425.988C830.503+425.828+827.305+430.659+828.434+429.31C860.671+403.195+847.795+343.504+801.382+347.061C760.196+347.145+714.645+389.59+728.461+432.058C728.241+431.616+727.766+427.153+730.24+427.79C730.358+425.142+734.417+429.083+734.084+428.65C721.756+411.294+690.953+411.179+677.702+427.777C658.611+454.737+670.841+500.307+703.717+509.927C725.374+514.966+745.329+490.029+729.732+471.902C737.102+491.393+715.455+512.763+697.171+500.134C678.366+488.713+671.564+463.499+677.299+442.999C683.029+416.712+718.935+418.073+732.89+433.906" fill="#ff74c8" stroke-linecap="round" opacity="1" stroke-linejoin="round"/>
<path stroke="#8a0c58" stroke-width="3" d="M692.728+93.0863C618.593+94.4648+719.134-0.391215+727.116+68.4025C754.938+24.2813+827.948+59.7633+795.731+105.798C811.771+88.0146+840.227+73.82+866.178+85.5925C882.075+99.8376+875.105+125.506+859.327+135.722C859.537+137.41+861.184+138.673+862.85+138.569C898.274+125.4+907.05+188.423+869.029+184.388C923.494+227.005+817.511+217.705+822.671+260.244C829.91+281.642+872.708+288.029+877.247+261.814C888.537+274.639+872.295+294.359+858.346+302.807C813.966+332.11+740.542+268.348+799.061+235.095C784.296+229.747+767.09+213.747+773.588+193.983C788.116+181.301+809.403+182.369+826.372+177.886C844.666+154.537+816.449+129.298+796.032+120.407C762.689+112.521+717.374+136.978+723.505+175.563C726.17+210.268+753.522+256.724+716.077+282.253C696.177+289.484+681.754+272.025+684.004+252.909C690.86+229.47+703.729+240.792+711.038+252.926C716.274+254.223+721.384+250.292+722.814+245.365C724.897+237.649+724.858+229.122+722.076+221.584C692.064+190.316+669.023+139.232+713.453+108.789C713.618+106.807+711.808+105.175+709.906+105.154C687.649+116.486+695.259+98.4822+696.837+88.7635C690.071+93.6108+682.832+102.866+687.479+111.274C692.765+118.413+713.778+113.187+707.639+106.718C662.444+137.706+684.906+191.736+716.072+223.451C718.487+229.417+718.378+236.161+717.188+242.396C716.855+246.547+712.17+248.276+709.063+245.581C709.264+221.333+676.346+234.322+677.662+253.508C675.038+278.065+696.925+297.273+720.414+287.421C758.516+260.076+735.275+212.797+730.012+176.287C723.425+140.687+766.833+118.445+796.834+127.533C811.181+136.807+834.933+153.494+822.151+172.943C804.766+174.438+785.324+177.199+770.439+187.87C758.881+205.153+771.574+236.101+794.015+237.079C793.098+236.709+792.091+234.875+792.794+233.666C776.319+242.111+760.266+266.643+774.886+285.565C797.928+328.419+871.98+323.374+887.819+277.448C888.715+269.113+884.871+255.894+874.743+256.214C872.046+280.279+824.039+275.888+830.072+250.948C840.602+223.555+884.497+240.682+892.641+208.812C897.94+198.203+874.624+178.069+872.978+189.202C916.621+192.856+904.036+116.994+862.665+132.024C862.811+131.931+867.351+133.818+865.646+136.15C883.449+130.153+888.142+94.5964+870.77+80.6765C846.286+69.5694+811.052+73.8433+796.58+99.0891C792.717+101.913+803.776+98.9127+800.771+104.068C838.926+55.232+754.103+15.5755+726.33+61.1864C723.67+62.3841+730.983+63.2054+729.878+62.9828C721.55-6.19698+610.721+79.6193+680.908+101.289C685.914+100.917+689.565+96.392+692.728+93.0863" fill="#ff74c8" stroke-linecap="round" opacity="1" stroke-linejoin="round"/>
<path stroke="#8a0c58" stroke-width="3" d="M253.208+432.182C254.701+432.584+255.327+435.619+257.159+434.992C298.241+411.264+373.184+416.018+379.015+473.878C381.731+492.338+361.803+505.358+345.787+500.287C341.327+504.6+346.454+511.423+350.234+514.531C380.742+529.945+412.296+496.748+422.822+470.607C424.542+346.123+242.715+387.258+202.779+468.747C186.636+491.751+212.313+484.939+226.129+479.364C217.458+533.926+126.842+462.967+187.311+459.12C168.47+446.457+186.982+429.229+204.815+429.514C194.225+423.703+198.859+409.154+200.157+397.782C184.33+415.22+159.638+425.332+136.109+431.95C134.574+438.718+136.506+439.046+138.475+432.874C162.584+434.15+186.213+424.403+199.375+403.114C199.677+402.865+196.329+404.163+195.958+402.669C192.889+398.194+189.779+417.034+190.98+422.028C192.157+429.071+205.228+434.726+201.489+424.434C183.251+421.258+158.362+447.515+181.482+459.236C179.936+458.656+183.19+454.873+182.346+455.405C161.004+449.048+150.853+476.617+166.06+490.129C184.287+508.488+225.577+514.918+232.231+482.12C232.219+463.741+209.484+478.157+200.21+481.136C202.96+481.316+201.939+486.453+203.476+482.126C235.753+417.204+332.522+371.073+396.836+414.219C436.215+442.659+414.726+499.423+373.341+511.672C362.611+518.246+351.829+504.013+347.417+506.061C363.343+512.063+383.1+498.927+384.825+482.13C390.164+415.648+302.037+399.744+255.796+428.568C252.934+429.689+266.657+425.293+259.664+431.464C260.263+432.502+258.987+434.087+258.132+434.589C269.966+430.499+290.329+427.376+296.281+441.935C299.043+464.761+272.088+473.52+263.395+487.59C263.807+489.975+265.39+492.195+267.692+493.067C348.103+501.027+346.462+624.539+273.942+643.946C261.202+643.898+238.235+645.454+236.398+628.726C237.43+620.903+238.765+610.801+246.388+606.591C245.09+606.99+243.552+605.369+243.566+604.4C242.554+617.717+259.03+627.07+270.32+620.347C327.254+598.604+310.741+506.218+251.619+506.48C249.513+506.893+248.265+509.497+249.343+511.379C271.425+520.756+267.096+558.565+242.177+559.516C216.165+558.007+205.912+529.819+188.387+515.341C178.226+524.008+200.411+533.091+203.075+543.686C229.526+618.355+146.415+711.47+70.245+686.48C21.3614+672.952+68.6771+596.78+98.019+634.767C97.8447+636.121+101.127+630.438+102.829+633.165C92.092+621.801+71.0555+634.814+77.0275+649.689C80.2488+662.812+91.9307+673.031+105.767+672.639C162.45+659.613+200.033+582.184+162.361+533.559C160.277+531.56+156.687+531.219+154.56+533.341C145.483+554.841+122.858+590.359+95.4376+574.715C76.9484+549.393+109.204+519.41+119.138+497.988C100.379+503.159+72.1909+513.439+53.5059+495.343C40.2045+464.895+71.2706+443.545+90.5562+426.958C91.4588+424.203+89.2945+421.294+86.5219+420.915C13.1708+412.633+77.1401+321.033+126.672+357.307C128.75+356.937+130.144+354.677+129.632+352.648C116.597+310.23+193.21+301.505+211.445+333.055C221.291+330.046+232.157+321.437+243.016+326.725C281.517+348.432+257.052+399.954+226.378+416.749C228.854+415.583+230.454+419.659+230.074+420.416C244.81+400.842+250.104+362.515+219.271+355.687C180.152+343.921+127.36+389.135+147.724+426.261C140.778+390.523+180.755+352.222+217.971+362.14C250.123+370.169+227.105+406.656+225.922+423.104C262.185+407.658+289.39+350.976+250.33+322.684C238.406+314.575+222.344+319.6+211.993+326.355C191.511+289.959+106.119+308.549+122.983+353.932C122.699+352.281+124.174+350.543+125.854+350.644C98.1316+336.561+56.0175+348.21+45.8202+379.419C34.9847+403.344+67.7977+432.578+84.0075+425.338C59.7968+439.368+32.2984+469.804+48.7123+499.951C67.0985+515.484+96.5986+516.834+116.404+502.858C116.281+503.115+111.237+500.492+113.403+498.271C96.3345+519.874+65.0953+561.744+96.9032+583.384C126.544+595.184+151.996+557.15+158.617+538.937C190.518+584.426+156.637+652.482+105.896+666.085C92.4251+667.392+78.2443+651.196+84.8222+638.614C95.5939+633.578+113.696+640.747+98.2486+622.89C59.1883+598.472+17.9798+665.348+60.1491+688.58C149.669+734.402+264.709+592.981+191.1+518.223C190.393+515.936+189.51+524.766+186.065+521.317C203.046+539.724+219.096+570.387+248.718+565.273C273.908+558.46+278.581+519.293+254.625+507.703C255.613+508.508+255.894+511.903+253.775+512.561C300.125+513.753+320.078+592.862+269.261+613.587C257.604+622.103+249.636+608.229+246.847+600.205C232.356+603.1+228.226+623.426+230.999+635.94C241.25+652.126+266.117+653.227+282.964+647.908C354.933+620.4+352.828+496.726+270.229+487.078C283.292+479.914+306.455+461.203+302.501+440.009C296.043+421.094+264.799+420.435+253.208+432.182" fill="#ff74c8" stroke-linecap="round" opacity="1" stroke-linejoin="round"/>
</g>
</svg>
